<?xml version="1.0" encoding="UTF-8"?>
<svg id="Layer_1" data-name="Layer 1" xmlns="http://www.w3.org/2000/svg" viewBox="0 0 1013 1013">
  <defs>
    <style>
      .cls-1 {
        fill: #fff;
      }

      .cls-2 {
        fill: #f10f35;
      }

      .cls-3 {
        fill: #0a0908;
      }

      .cls-4 {
        fill: #f69c00;
      }
    </style>
  </defs>
  <path class="cls-3" d="m506.5,0h0c279.73,0,506.5,226.77,506.5,506.5h0c0,279.73-226.77,506.5-506.5,506.5h0C226.77,1013,0,786.23,0,506.5h0C0,226.77,226.77,0,506.5,0Z"/>
  <circle class="cls-2" cx="610.45" cy="485.01" r="156.55"/>
  <polygon class="cls-1" points="290 672 290 581.88 450.9 484.55 290 383.33 290 296.73 611.79 485.01 290 672"/>
  <path class="cls-4" d="m475.62,405.31c-13.82,23.37-21.78,50.62-21.78,79.75s7.87,56.06,21.54,79.34l136.35-79.34-136.11-79.75h0Z"/>
</svg>